# xmcd
# Track frame offsets:
# 150
# 14829
# 26159
# 47295
# 62528
# 76733
# 92208
# 107609
# 119689
# 132410
# 144461
# 165166
# 176099
#
# Disc length: 2591 seconds
# Revision: 0
# Processed by: cddbd v1.5PL3 Copyright (c) Steve Scherf et al.
# Submitted via: VisiTrax 2.9.5.180 - For more info visit www.synapsa.com
#
DISCID=a80a1d0d
DTITLE=Josh Logan - Gentle Rain
DYEAR=1900
DGENRE=
TTITLE0=Tryin' to love the hurt right out of me
TTITLE1=Provin' myself wrong
TTITLE2=It's what I see
TTITLE3=Gentle rain
TTITLE4=I didn't see you walk away
TTITLE5=Fifty dollars
TTITLE6=I passed over Georgia
TTITLE7=She took everything but me
TTITLE8=Drinkin' overtime
TTITLE9=I was your fool
TTITLE10=The castle
TTITLE11=Tumblin' down
TTITLE12=I'm tired of being something (that means nothing to you)
EXTD=
EXTT0=
EXTT1=
EXTT2=
EXTT3=
EXTT4=
EXTT5=
EXTT6=
EXTT7=
EXTT8=
EXTT9=
EXTT10=
EXTT11=
EXTT12=
PLAYORDER=
